<?xml version="1.0" encoding="UTF-8" standalone="no"?>
<svg
   xmlns:dc="http://purl.org/dc/elements/1.1/"
   xmlns:cc="http://creativecommons.org/ns#"
   xmlns:rdf="http://www.w3.org/1999/02/22-rdf-syntax-ns#"
   xmlns:svg="http://www.w3.org/2000/svg"
   xmlns="http://www.w3.org/2000/svg"
   xmlns:sodipodi="http://sodipodi.sourceforge.net/DTD/sodipodi-0.dtd"
   xmlns:inkscape="http://www.inkscape.org/namespaces/inkscape"
   sodipodi:docname="128 ОГШБр к.svg"
   inkscape:version="1.0 (4035a4fb49, 2020-05-01)"
   id="svg1204"
   version="1.1"
   viewBox="0 0 69.999998 79.999995"
   height="80mm"
   width="70mm">
  <defs
     id="defs1198" />
  <sodipodi:namedview
     inkscape:snap-text-baseline="true"
     inkscape:snap-object-midpoints="true"
     inkscape:snap-center="true"
     inkscape:snap-midpoints="true"
     inkscape:snap-smooth-nodes="true"
     inkscape:measure-end="546.671,293.023"
     inkscape:measure-start="546.671,302.362"
     inkscape:snap-intersection-paths="true"
     inkscape:object-paths="true"
     inkscape:window-maximized="1"
     inkscape:window-y="-8"
     inkscape:window-x="-8"
     inkscape:window-height="962"
     inkscape:window-width="1280"
     fit-margin-bottom="0"
     fit-margin-right="0"
     fit-margin-left="0"
     fit-margin-top="0"
     showgrid="false"
     inkscape:current-layer="layer1"
     inkscape:document-units="mm"
     inkscape:cy="151.1811"
     inkscape:cx="132.28346"
     inkscape:zoom="2.0604427"
     inkscape:pageshadow="2"
     inkscape:pageopacity="0.0"
     borderopacity="1.0"
     bordercolor="#666666"
     pagecolor="#ffffff"
     id="base"
     inkscape:snap-bbox="false"
     inkscape:bbox-paths="true"
     inkscape:bbox-nodes="true"
     inkscape:snap-bbox-edge-midpoints="true"
     inkscape:snap-bbox-midpoints="true"
     inkscape:snap-global="false"
     inkscape:document-rotation="0" />
  <metadata
     id="metadata1201">
    <rdf:RDF>
      <cc:Work
         rdf:about="">
        <dc:format>image/svg+xml</dc:format>
        <dc:type
           rdf:resource="http://purl.org/dc/dcmitype/StillImage" />
        <dc:title />
      </cc:Work>
    </rdf:RDF>
  </metadata>
  <g
     inkscape:label="Layer 1"
     inkscape:groupmode="layer"
     id="layer1"
     transform="translate(-602.69529,-273.00218)">
    <g
       id="g39">
      <path
         inkscape:connector-curvature="0"
         id="path1693"
         d="m 602.69529,273.00218 v 30.6773 c 0,20.58206 10.48297,39.72002 35,49.3227 24.51702,-9.60269 35,-28.74064 35,-49.3227 v -30.6773 z"
         style="color:#000000;clip-rule:nonzero;display:inline;overflow:visible;visibility:visible;opacity:1;isolation:auto;mix-blend-mode:normal;color-interpolation:sRGB;color-interpolation-filters:linearRGB;solid-color:#000000;solid-opacity:1;fill:#e6e6e6;fill-opacity:1;fill-rule:nonzero;stroke:none;stroke-width:0.261502;stroke-linecap:round;stroke-linejoin:round;stroke-miterlimit:4;stroke-dasharray:none;stroke-dashoffset:0;stroke-opacity:1;color-rendering:auto;image-rendering:auto;shape-rendering:auto;text-rendering:auto;enable-background:accumulate" />
      <path
         id="path1695"
         d="m 605.16626,275.47315 v 28.20703 c 0,19.4784 9.52186,37.2098 32.5293,46.60156 23.00743,-9.39177 32.5293,-27.12316 32.5293,-46.60156 v -28.20703 z"
         style="color:#000000;clip-rule:nonzero;display:inline;overflow:visible;visibility:visible;opacity:1;isolation:auto;mix-blend-mode:normal;color-interpolation:sRGB;color-interpolation-filters:linearRGB;solid-color:#000000;solid-opacity:1;fill:#000000;fill-opacity:1;fill-rule:nonzero;stroke:none;stroke-width:0.261502;stroke-linecap:round;stroke-linejoin:round;stroke-miterlimit:4;stroke-dasharray:none;stroke-dashoffset:0;stroke-opacity:1;color-rendering:auto;image-rendering:auto;shape-rendering:auto;text-rendering:auto;enable-background:accumulate"
         inkscape:connector-curvature="0" />
      <path
         id="path1881"
         style="opacity:1;fill:#e6e6e6;stroke:none;stroke-width:7.73015;stroke-linecap:round;stroke-linejoin:round"
         d="m 718.4043,263.41406 -18.28125,30.13282 -18.28125,-30.13086 v 93.08007 c 5.81941,2.95981 11.90692,5.76435 18.28125,8.39649 6.37476,-2.63232 12.46147,-5.43645 18.28125,-8.39649 z"
         transform="matrix(0.26458333,0,0,0.26458333,452.45462,253.00225)" />
      <path
         sodipodi:nodetypes="cccccccccccccccccc"
         style="opacity:1;fill:#e6e6e6;stroke:none;stroke-width:7.73015;stroke-linecap:round;stroke-linejoin:round"
         d="m 579.67773,87.429688 v 36.562502 h 33.29297 l 22.21094,-19.52735 14.16992,13.61719 -4.83789,5.91016 h 37.32813 v 17.74804 l 18.28125,-30.11914 18.28125,30.11914 v -17.74804 h 37.33008 l -4.83594,-5.91016 14.16601,-13.61719 22.20899,19.52735 h 33.29492 V 87.429688 Z"
         transform="matrix(0.26458333,0,0,0.26458333,452.45462,253.00225)"
         id="path1697" />
      <path
         style="font-variation-settings:normal;vector-effect:none;fill:#e6e6e6;fill-opacity:1;stroke:none;stroke-width:0.949187;stroke-linecap:round;stroke-linejoin:round;stroke-miterlimit:4;stroke-dasharray:none;stroke-dashoffset:0;stroke-opacity:1;stop-color:#000000"
         d="m 649.39844,239.11719 -43.28516,41.60547 11.04883,11.49414 30.60351,-29.41602 1.96094,-23.60742 z"
         transform="matrix(0.26458333,0,0,0.26458333,452.45462,253.00225)"
         id="path1875" />
      <path
         style="font-variation-settings:normal;vector-effect:none;fill:#e6e6e6;fill-opacity:1;stroke:none;stroke-width:0.949187;stroke-linecap:round;stroke-linejoin:round;stroke-miterlimit:4;stroke-dasharray:none;stroke-dashoffset:0;stroke-opacity:1;stop-color:#000000"
         d="m 750.8457,239.11523 -0.32812,0.0781 1.96094,23.60742 30.60546,29.41602 11.04883,-11.49414 z"
         transform="matrix(0.26458333,0,0,0.26458333,452.45462,253.00225)"
         id="path1873" />
      <path
         style="font-variation-settings:normal;vector-effect:none;fill:#e6e6e6;fill-opacity:1;stroke:none;stroke-width:0.949187;stroke-linecap:round;stroke-linejoin:round;stroke-miterlimit:4;stroke-dasharray:none;stroke-dashoffset:0;stroke-opacity:1;stop-color:#000000"
         d="m 765.18555,109.89648 -8.85352,8.50977 8.21094,10.0332 -11.85352,11.39453 -1.99804,24.03516 24.17578,-23.23633 13.72461,30.73242 28.69922,-15.65625 z"
         transform="matrix(0.26458333,0,0,0.26458333,452.45462,253.00225)"
         id="path1869" />
      <path
         style="font-variation-settings:normal;vector-effect:none;fill:#e6e6e6;fill-opacity:1;stroke:none;stroke-width:0.949187;stroke-linecap:round;stroke-linejoin:round;stroke-miterlimit:4;stroke-dasharray:none;stroke-dashoffset:0;stroke-opacity:1;stop-color:#000000"
         d="m 635.06055,109.89648 -52.10547,45.8125 28.70117,15.65625 13.72266,-30.73242 24.18164,23.24219 -2.00196,-24.03906 -11.85547,-11.39649 8.2129,-10.0332 z"
         id="path1701"
         transform="matrix(0.26458333,0,0,0.26458333,452.45462,253.00225)" />
      <path
         id="path1707"
         style="font-variation-settings:normal;vector-effect:none;fill:#e6e6e6;fill-opacity:1;stroke:none;stroke-width:0.949187;stroke-linecap:round;stroke-linejoin:round;stroke-miterlimit:4;stroke-dasharray:none;stroke-dashoffset:0;stroke-opacity:1;stop-color:#000000"
         d="m 700.12305,119.33203 -15.72657,25.91602 15.72657,51.01172 15.72656,-51.01172 z m -48.9336,15.89844 2.51172,30.21094 42.70508,32.02539 -17.25977,-50.51172 z m 97.86719,0 -27.95703,11.72461 -17.25977,50.51172 42.70704,-32.02539 z m -98.60156,34.67773 -29.50781,6.94922 19.78906,22.96485 53.37305,0.80664 z m 99.33594,0 -43.6543,30.72071 53.375,-0.80664 19.78711,-22.96485 z m -55.68164,34.62891 -53.37305,0.80664 -19.78906,22.96484 29.50781,6.94727 z m 12.02734,0 43.6543,30.71875 29.50781,-6.94727 -19.78711,-22.96484 z m -9.73047,3.16016 -42.70703,32.02539 -2.50977,30.21093 27.95703,-11.72265 z m 7.43359,0 17.26172,50.51367 27.95508,11.72265 -2.50976,-30.21093 z m -3.71679,1.20898 -15.72657,51.00977 15.72657,25.91796 15.72656,-25.91796 z"
         transform="matrix(0.26458333,0,0,0.26458333,452.45462,253.00225)" />
      <path
         d="m 645.84777,306.60222 a 8.1522218,8.1522218 0 0 1 -8.15221,8.15223 8.1522218,8.1522218 0 0 1 -8.15223,-8.15223 8.1522218,8.1522218 0 0 1 8.15223,-8.15222 8.1522218,8.1522218 0 0 1 8.15221,8.15222 z"
         style="fill:#e6e6e6;stroke:none;stroke-width:3.2648;stroke-linecap:round;stroke-linejoin:round"
         id="path1729" />
      <path
         d="m 639.86938,306.60222 a 2.1738345,2.1738345 0 0 1 -2.17383,2.17384 2.1738345,2.1738345 0 0 1 -2.17383,-2.17384 2.1738345,2.1738345 0 0 1 2.17383,-2.17382 2.1738345,2.1738345 0 0 1 2.17383,2.17382 z"
         style="fill:#000000;stroke:none;stroke-width:0.870579;stroke-linecap:round;stroke-linejoin:round"
         id="path1731" />
      <path
         id="path1733"
         style="fill:#000000;stroke:none;stroke-width:0.870579;stroke-linecap:round;stroke-linejoin:round"
         d="m 639.86938,301.43919 a 2.1738345,2.1738345 0 0 1 -2.17383,2.17384 2.1738345,2.1738345 0 0 1 -2.17383,-2.17384 2.1738345,2.1738345 0 0 1 2.17383,-2.17382 2.1738345,2.1738345 0 0 1 2.17383,2.17382 z" />
      <path
         d="m 643.27763,307.07419 a 2.1738345,2.1738345 0 0 1 -2.73919,-1.39569 2.1738345,2.1738345 0 0 1 1.39569,-2.73917 2.1738345,2.1738345 0 0 1 2.73918,1.39567 2.1738345,2.1738345 0 0 1 -1.39568,2.73919 z"
         style="fill:#000000;stroke:none;stroke-width:0.870579;stroke-linecap:round;stroke-linejoin:round"
         id="path1735" />
      <path
         id="path1737"
         style="fill:#000000;stroke:none;stroke-width:0.870579;stroke-linecap:round;stroke-linejoin:round"
         d="m 638.97164,312.05695 a 2.1738345,2.1738345 0 0 1 0.48092,-3.03643 2.1738345,2.1738345 0 0 1 3.03641,0.48093 2.1738345,2.1738345 0 0 1 -0.48092,3.03641 2.1738345,2.1738345 0 0 1 -3.03641,-0.48091 z" />
      <path
         d="m 633.45697,302.93933 a 2.1738345,2.1738345 0 0 1 1.39569,2.73918 2.1738345,2.1738345 0 0 1 -2.73919,1.39568 2.1738345,2.1738345 0 0 1 -1.39568,-2.73918 2.1738345,2.1738345 0 0 1 2.73918,-1.39568 z"
         style="fill:#000000;stroke:none;stroke-width:0.870579;stroke-linecap:round;stroke-linejoin:round"
         id="path1739" />
      <path
         id="path1741"
         style="fill:#000000;stroke:none;stroke-width:0.870579;stroke-linecap:round;stroke-linejoin:round"
         d="m 632.90214,309.50144 a 2.1738345,2.1738345 0 0 1 3.03641,-0.48092 2.1738345,2.1738345 0 0 1 0.48092,3.03642 2.1738345,2.1738345 0 0 1 -3.0364,0.48092 2.1738345,2.1738345 0 0 1 -0.48093,-3.03642 z" />
    </g>
  </g>
</svg>
